SplineFontDB: 3.0
FontName: MarathiCursive
FullName: MarathiCursive
FamilyName: MarathiCursive
Weight: Medium
Copyright: Created by MihailJP with FontForge 2.0 (http://fontforge.sf.net)
UComments: "2012-5-4: Created." 
Version: 001.000
StrokeWidth: 60
ItalicAngle: 0
UnderlinePosition: -100
UnderlineWidth: 50
Ascent: 800
Descent: 200
LayerCount: 2
Layer: 0 0 "+gMyXYgAA"  1
Layer: 1 0 "+Uk2XYgAA"  0
StrokedFont: 1
XUID: [1021 494 2031268696 4926356]
OS2Version: 0
OS2_WeightWidthSlopeOnly: 0
OS2_UseTypoMetrics: 1
CreationTime: 1336059319
ModificationTime: 1336108507
OS2TypoAscent: 0
OS2TypoAOffset: 1
OS2TypoDescent: 0
OS2TypoDOffset: 1
OS2TypoLinegap: 0
OS2WinAscent: 0
OS2WinAOffset: 1
OS2WinDescent: 0
OS2WinDOffset: 1
HheadAscent: 0
HheadAOffset: 1
HheadDescent: 0
HheadDOffset: 1
OS2Vendor: 'PfEd'
Lookup: 2 0 0 "oT/auT Decomposition"  {"oT/auT Decomposition-1"  } [' RQD' ('deva' <'dflt' > ) 'psts' ('deva' <'dflt' > ) ]
Lookup: 4 0 0 "Akhand ligatures"  {"Akhand ligatures-1"  } ['akhn' ('deva' <'dflt' > ) ]
Lookup: 4 0 0 "uT ligatures"  {"uT ligatures-1"  } ['blws' ('deva' <'dflt' > ) ]
Lookup: 4 0 0 "AT ligatures"  {"AT ligatures-1"  } ['psts' ('deva' <'dflt' > ) ]
Lookup: 4 0 0 "IT ligatures"  {"IT ligatures-1"  } ['psts' ('deva' <'dflt' > ) ]
Lookup: 262 0 0 "Above-base mark2mark"  {"Above-base mark2mark-1"  } ['abvm' ('deva' <'dflt' > ) ]
Lookup: 260 0 0 "Above-base marks"  {"Above-base marks-1"  } ['abvm' ('deva' <'dflt' > ) ]
MarkAttachClasses: 1
DEI: 91125
LangName: 1033 
Encoding: Custom
UnicodeInterp: none
NameList: AGL without afii
DisplaySize: -48
AntiAlias: 1
FitToEm: 1
WinInfo: 112 16 4
BeginPrivate: 0
EndPrivate
Grid
-1000 600 m 0
 2000 600 l 0
  Named: "topline" 
EndSplineSet
TeXData: 1 0 0 346030 173015 115343 0 1048576 115343 783286 444596 497025 792723 393216 433062 380633 303038 157286 324010 404750 52429 2506097 1059062 262144
AnchorClass2: "anusvAra2"  "Above-base mark2mark-1" "eT"  "Above-base marks-1" "anusvara"  "Above-base marks-1" 

StartChar: akAra
Encoding: 0 2309 0
Width: 899
VWidth: 0
Flags: W
AnchorPoint: "anusvara" 740 800 basechar 0
LayerCount: 2
Fore
SplineSet
410 147 m 25
 488.39 89.6699 422 0 611 0 c 0
 713 0 767 120 710 420 c 0
 687.903 536.296 734 585 779 600 c 9
209 600 m 17
 233 648 266.354 690 323 690 c 24
 383.389 690 443.863 660.17 449 600 c 24
 455.238 526.928 431 468 344 444 c 1
 446 459 516.256 422.998 527 342 c 24
 539.309 249.213 475.6 136.349 383 150 c 24
 242.464 170.718 170 219 120 402 c 9
EndSplineSet
EndChar

StartChar: AkAra
Encoding: 1 2310 1
Width: 843
VWidth: 0
Flags: W
AnchorPoint: "anusvara" 660 800 basechar 0
LayerCount: 2
Fore
SplineSet
324.195 522 m 17
 294.195 486 231.208 465.701 189.195 483 c 0
 138.195 504 117.746 548.565 120.195 600 c 0
 123.195 663 162.195 705 222.195 705 c 0
 290.357 705 333.195 638.162 333.195 570 c 24
 333.195 402.837 204.195 237 222.195 156 c 0
 246.412 47.0234 328.989 0 462.195 0 c 0
 612.195 0 648.195 24 723.195 93 c 9
663.848 600 m 17
 618.848 585 619.348 537 613.348 396 c 0
 608.08 272.201 602.367 166.335 595.348 19.5 c 25
EndSplineSet
EndChar

StartChar: it
Encoding: 2 2311 2
Width: 772
VWidth: 0
Flags: W
AnchorPoint: "anusvara" 700 800 basechar 0
LayerCount: 2
Fore
SplineSet
232.334 600 m 17
 154.334 588 105.889 538.372 127.334 480 c 0
 164.167 379.743 265.334 360 340.334 384 c 1
 241.334 363 140.167 310.743 164.167 160.743 c 0
 181.658 51.4216 243.75 0 361.334 0 c 0
 487.334 0 562.334 57 562.334 282 c 0
 562.334 429.3 428.935 562.287 517.334 657 c 0
 559.334 702 640.334 639 652.334 600 c 9
EndSplineSet
EndChar

StartChar: ut
Encoding: 4 2313 4
Width: 924
VWidth: 0
Flags: W
AnchorPoint: "anusvara" 800 800 basechar 0
LayerCount: 2
Fore
SplineSet
288 309 m 17
 372 360 474 284.308 474 186 c 0
 474 75 398.926 0 321 0 c 0
 192 0 120 130.647 120 294 c 0
 120 525 273 675 465 681 c 0
 651.057 686.814 798 513 804 345 c 0
 809.253 197.906 765 84 651 0 c 9
EndSplineSet
EndChar

StartChar: ka
Encoding: 11 2325 11
Width: 781
VWidth: 0
Flags: W
AnchorPoint: "anusvara" 500 800 basechar 0
AnchorPoint: "eT" 617 600 basechar 0
LayerCount: 2
Fore
SplineSet
331 600 m 17
 231.999 564 145.513 492.476 121.419 375 c 24
 105.029 295.09 235.757 291.075 251.212 210.979 c 24
 265.15 138.741 252.553 33.4893 187.315 33.4893 c 0
 147.212 33.4893 109.26 89.5254 130.315 126.489 c 0
 175.315 205.489 621.315 219.489 653.315 111.489 c 0
 673.038 44.9238 660.292 0 593.315 0 c 0
 491.315 0 507.315 467.489 615.315 600 c 9
EndSplineSet
EndChar

StartChar: kha
Encoding: 12 2326 12
Width: 760
VWidth: 0
Flags: W
AnchorPoint: "anusvara" 500 800 basechar 0
AnchorPoint: "eT" 620 601.927 basechar 0
LayerCount: 2
Fore
SplineSet
120 600 m 17
 181.806 648.704 201.611 661.408 265.806 660.704 c 0
 351.019 659.77 332.879 594.665 313.806 552.704 c 0
 283.806 486.704 121.806 417.704 172.806 345.704 c 0
 222.823 275.091 383.994 277.05 385.806 318.704 c 0
 388.806 387.704 208.806 318.704 223.806 189.704 c 0
 241.203 40.083 338.971 0 514.806 0 c 0
 712.806 0 631.806 237.704 577.806 417.704 c 0
 548.455 515.54 544.806 567.704 619.806 600 c 0
EndSplineSet
EndChar

StartChar: ga
Encoding: 13 2327 13
Width: 657
VWidth: 0
Flags: W
AnchorPoint: "anusvara" 350 800 basechar 0
AnchorPoint: "eT" 476 600 basechar 0
LayerCount: 2
Fore
SplineSet
475.486 600 m 17
 469.486 351.704 448.486 0 491.681 0 c 0
 550.486 0 562.486 33.7041 577.486 69.7041 c 0
197.681 600 m 17
 247.486 414.704 265.486 327.704 253.486 243.704 c 0
 246.59 195.43 196.522 160.44 149.681 174 c 24
 111.017 185.192 112.862 246.516 139.486 276.704 c 24
 169.147 310.337 229.486 324.704 253.486 291.704 c 0
EndSplineSet
EndChar

StartChar: gha
Encoding: 14 2328 14
Width: 654
VWidth: 0
Flags: W
AnchorPoint: "anusvara" 350 800 basechar 0
AnchorPoint: "eT" 472 600 basechar 0
LayerCount: 2
Fore
SplineSet
472 600 m 17
 468.701 343.547 450.701 0 502 0 c 0
 540.701 0 550.701 17.5469 574.702 45.5469 c 9
208.298 600 m 17
 148 571.547 120 535.547 120 483.547 c 0
 120.001 407.892 228 407.547 304.298 423 c 1
 228 407.547 136.517 347.769 142 257.547 c 24
 146.399 185.161 240.636 180.153 318 197.547 c 0
 382.701 212.094 422.701 263.547 466 321 c 9
EndSplineSet
EndChar

StartChar: ca
Encoding: 16 2330 16
Width: 598
VWidth: 0
Flags: W
AnchorPoint: "anusvara" 400 800 basechar 0
AnchorPoint: "eT" 427 600 basechar 0
LayerCount: 2
Fore
SplineSet
427.321 600 m 17
 447.321 578 478.038 515.662 450.038 477.662 c 0
 405.946 417.822 342.081 403.324 284.038 405.662 c 1
 408.038 397.662 495.032 318 476.038 251.662 c 0
 426.771 79.5908 116.037 139.662 120.038 53.6621 c 0
 120.879 35.5713 146.037 0 178.038 0 c 0
 286.037 0 317.321 110 193.321 210 c 9
EndSplineSet
EndChar

StartChar: cha
Encoding: 17 2331 17
Width: 672
VWidth: 0
Flags: W
AnchorPoint: "anusvara" 400 800 basechar 0
AnchorPoint: "eT" 471 600 basechar 0
LayerCount: 2
Fore
SplineSet
253.117 600 m 17
 167.118 565.983 106.521 514.087 122.588 447 c 0
 139.117 377.983 199.117 331.983 321.117 389.983 c 1
 181.118 333.982 139.117 281.983 157.117 139.983 c 0
 172.84 15.9473 277.117 0 339.117 0 c 0
 441.118 0 520.071 89.0166 545.117 207.983 c 0
 585.118 397.982 459.118 467.982 444.588 401 c 0
 429.496 331.424 531.256 344.294 543.117 453.983 c 0
 551.118 527.966 507.118 585.982 471.117 600 c 9
EndSplineSet
EndChar

StartChar: ja
Encoding: 18 2332 18
Width: 663
VWidth: 0
Flags: W
AnchorPoint: "anusvara" 440 800 basechar 0
AnchorPoint: "eT" 543 600 basechar 0
LayerCount: 2
Fore
SplineSet
261.655 576.437 m 17
 373.827 502 261.827 350 159.827 386 c 0
 44.9216 426.555 95.8272 600 190.08 600 c 0
 325.654 600 451.662 357.01 461.655 220.437 c 0
 467.654 138.437 443.654 0 355.655 0 c 0
 315.654 0 278.282 40.3291 287.655 108.437 c 0
 317.654 326.437 451.654 536.437 543.654 600 c 9
EndSplineSet
EndChar

StartChar: jha
Encoding: 19 2333 19
Width: 833
VWidth: 0
Flags: W
AnchorPoint: "anusvara" 550 800 basechar 0
AnchorPoint: "eT" 649 600 basechar 0
LayerCount: 2
Fore
SplineSet
442.116 303 m 17
 472.927 333.865 502.578 355.832 559.927 354 c 0
 626.737 351.865 790.229 133.585 671.737 102.865 c 0
 590.737 81.8652 599.737 444.865 649.927 600 c 9
340.927 600 m 17
 280.927 513.865 112.927 540.865 130.927 408.865 c 0
 151.476 258.175 375.024 451.367 442.116 303 c 0
 472.927 234.865 403.062 119.813 289.927 108.865 c 0
 196.927 99.8652 70.6602 133.306 139.927 174.865 c 0
 289.927 264.865 239.737 0 361.927 0 c 0
 422.327 0 464.737 21.8652 491.737 81.8652 c 9
EndSplineSet
EndChar

StartChar: Ja
Encoding: 20 2334 20
Width: 808
VWidth: 0
Flags: W
AnchorPoint: "anusvara" 550 800 basechar 0
AnchorPoint: "eT" 651 600 basechar 0
LayerCount: 2
Fore
SplineSet
460 293.28 m 17
 534 291.281 671.252 229.28 687.252 119.28 c 0
 694.831 67.1729 665.252 0 624 0 c 0
 532.22 0 648.22 452 651 600 c 9
226 409.28 m 17
 270 463.281 414.956 471.341 447.748 391 c 24
 486.112 297.008 428.927 168.317 327.748 160 c 0
 246 153.281 161.253 212.562 120 277.28 c 9
EndSplineSet
EndChar

StartChar: Ta
Encoding: 21 2335 21
Width: 639
VWidth: 0
Flags: W
AnchorPoint: "anusvara" 480 800 basechar 0
AnchorPoint: "eT" 510 600 basechar 0
LayerCount: 2
Fore
SplineSet
510.662 600 m 17
 470.663 548.996 456.906 514.081 456.615 453 c 24
 456.071 338.865 551.945 270.576 508.589 164.996 c 24
 465.686 60.5186 394.59 0 270.59 0 c 0
 134.76 0 36.5898 180.996 222.59 312.996 c 0
EndSplineSet
EndChar

StartChar: Da
Encoding: 23 2337 23
Width: 693
VWidth: 0
Flags: W
AnchorPoint: "anusvara" 400 800 basechar 0
AnchorPoint: "eT" 468 600 basechar 0
LayerCount: 2
Fore
SplineSet
468 600 m 17
 366 570 293 470 309 390 c 0
 317.385 348.075 367.029 300.499 439 324 c 0
 537 356 573 314 573 198 c 0
 573 67.2139 505.115 0 352.885 0 c 0
 161.115 0 130 210 120 420 c 0
EndSplineSet
EndChar

StartChar: Dha
Encoding: 24 2338 24
Width: 790
VWidth: 0
Flags: W
AnchorPoint: "anusvara" 450 800 basechar 0
AnchorPoint: "eT" 459 600 basechar 0
LayerCount: 2
Fore
SplineSet
459 600 m 17
 485.821 585.602 516 540.602 465 501.602 c 0
 287.16 365.609 120 381.602 120 204.602 c 0
 120 95.1797 184.657 59.7812 267 51.6016 c 24
 392.935 39.0918 429.835 155.512 573 159.602 c 0
 678.001 162.602 714.001 0 603 0 c 0
 519.001 0 474 63.6016 438 108.602 c 9
EndSplineSet
EndChar

StartChar: Na
Encoding: 25 2339 25
Width: 707
VWidth: 0
Flags: W
AnchorPoint: "anusvara" 500 800 basechar 0
AnchorPoint: "eT" 536.148 600 basechar 0
LayerCount: 2
Fore
SplineSet
535.931 600 m 17
 517.931 440.825 492.931 0 567.931 0 c 0
 605.931 0 617.931 34.8252 627.931 72.8252 c 9
132.712 600 m 17
 159.657 476 31.6572 190 253.539 190 c 0
 308.755 190 387.154 278.08 391.539 338 c 0
 397.539 420 293.31 428.167 293.539 408 c 0
 295.539 232 383.539 482 380.713 600 c 9
EndSplineSet
EndChar

StartChar: ta
Encoding: 26 2340 26
Width: 730
VWidth: 0
Flags: W
AnchorPoint: "anusvara" 500 800 basechar 0
AnchorPoint: "eT" 485 600 basechar 0
LayerCount: 2
Fore
SplineSet
325.692 0 m 17
 170.251 0 99.2715 110.579 125.252 225.272 c 24
 156.151 361.68 294.849 332.844 422.252 426.272 c 0
 512.251 492.272 503.251 537.272 484.692 600 c 5
 557.251 531.272 446.251 0 574.692 0 c 0
 602.251 0 635.251 33.2725 650.252 66.2725 c 9
EndSplineSet
EndChar

StartChar: tha
Encoding: 27 2341 27
Width: 861
VWidth: 0
Flags: W
AnchorPoint: "anusvara" 550 800 basechar 0
AnchorPoint: "eT" 660 600 basechar 0
LayerCount: 2
Fore
SplineSet
336.212 370.218 m 17
 213.001 332.435 120 377.435 120 449.436 c 0
 120 507.03 177.001 600 246.212 600 c 0
 351.001 600 182.943 354.181 217.606 202.782 c 24
 233.211 134.63 289.395 96 361.606 96 c 0
 430.104 96 475.606 132 462.212 223.218 c 1
 486.213 136.217 510.212 0 612.424 0 c 0
 705.212 0 741.212 85.0469 741.212 190.218 c 0
 741.212 289.217 650.336 355.088 627.424 471 c 24
 617.358 521.924 633.213 559.218 660.212 600 c 9
EndSplineSet
EndChar

StartChar: da
Encoding: 28 2342 28
Width: 722
VWidth: 0
Flags: W
AnchorPoint: "anusvara" 400 800 basechar 0
AnchorPoint: "eT" 581.966 601.927 basechar 0
LayerCount: 2
Fore
SplineSet
284.429 600 m 0
 172.429 533.927 83.7725 417.704 134.772 345.704 c 0
 184.789 275.091 345.96 277.05 347.772 318.704 c 0
 350.772 387.704 170.772 318.704 185.772 189.704 c 0
 203.169 40.083 300.938 0 476.772 0 c 0
 674.772 0 593.772 237.704 539.772 417.704 c 0
 510.421 515.54 506.772 567.704 581.772 600 c 0
EndSplineSet
EndChar

StartChar: dha
Encoding: 29 2343 29
Width: 755
VWidth: 0
Flags: W
AnchorPoint: "anusvara" 500 800 basechar 0
AnchorPoint: "eT" 540 600 basechar 0
LayerCount: 2
Fore
SplineSet
120 488.129 m 17
 151.413 456.33 268.346 422.414 340 470.129 c 24
 385.412 500.368 358.771 600 288 600 c 0
 216 600 200.8 450.491 238 364.129 c 24
 266.02 299.081 340 290.128 412 312.129 c 1
 316 286.128 233.538 203.923 254 104.129 c 24
 273.209 10.4473 367.413 0 476 0 c 0
 596.522 0 624.869 68.5312 634 154.129 c 24
 652.849 330.839 512 390.129 540 600 c 9
EndSplineSet
EndChar

StartChar: na
Encoding: 30 2344 30
Width: 585
VWidth: 0
Flags: W
AnchorPoint: "anusvara" 350 800 basechar 0
AnchorPoint: "eT" 465 600 basechar 0
LayerCount: 2
Fore
SplineSet
233.787 576.437 m 17
 239.189 522 185.189 488 149.959 504 c 0
 109.037 522.585 107.189 600 162.212 600 c 0
 297.786 600 335.189 388 369.189 234 c 0
 386.915 153.714 365.188 0 277.189 0 c 0
 237.188 0 199.816 40.3291 209.189 108.437 c 0
 239.188 326.437 373.188 536.437 465.188 600 c 9
EndSplineSet
EndChar

StartChar: pa
Encoding: 31 2346 31
Width: 738
VWidth: 0
Flags: W
AnchorPoint: "anusvara" 400 800 basechar 0
AnchorPoint: "eT" 554 600 basechar 0
LayerCount: 2
Fore
SplineSet
156 600 m 17
 170 580.936 176.737 558.968 176 530.936 c 0
 174 454.936 120 420.937 120 302.936 c 0
 120 229.599 166.377 166.936 238 166.936 c 0
 307.463 166.936 385.259 219.456 339.463 258.936 c 0
 281.463 308.936 276 0 484 0 c 0
 778 0 489.463 392.936 554 600 c 9
EndSplineSet
EndChar

StartChar: pha
Encoding: 32 2347 32
Width: 879
VWidth: 0
Flags: W
AnchorPoint: "anusvara" 500 800 basechar 0
AnchorPoint: "eT" 759 600 basechar 0
LayerCount: 2
Fore
SplineSet
129.724 600 m 17
 101.724 508.936 129.988 256.35 269.977 252.936 c 0
 433.977 248.936 429.977 600 411.977 600 c 0
 375.977 600 442.977 0 399.977 0 c 0
 372.977 0 375.977 183 474.724 183 c 0
 799.729 183 733.724 0 711.724 0 c 0
 659.724 0 660.173 495 759.173 600 c 9
EndSplineSet
EndChar

StartChar: ba
Encoding: 33 2348 33
Width: 756
VWidth: 0
Flags: W
AnchorPoint: "anusvara" 400 800 basechar 0
AnchorPoint: "eT" 577 600 basechar 0
LayerCount: 2
Fore
SplineSet
636.847 93 m 17
 561.847 24 525.847 0 375.847 0 c 0
 313.847 0 172.84 15.9473 157.117 139.983 c 0
 139.117 281.983 181.118 333.982 321.117 389.983 c 1
 199.117 331.983 139.117 377.983 122.588 447 c 0
 106.521 514.087 167.118 565.983 253.117 600 c 9
577.5 600 m 17
 532.5 585 533 537 527 396 c 0
 521.731 272.201 516.019 166.335 509 19.5 c 25
EndSplineSet
EndChar

StartChar: bha
Encoding: 34 2349 34
Width: 750
VWidth: 0
Flags: W
AnchorPoint: "anusvara" 420 800 basechar 0
AnchorPoint: "eT" 589 600 basechar 0
LayerCount: 2
Fore
SplineSet
390.263 528 m 17
 336.263 488 242.629 416.018 150.263 450 c 24
 93.0166 471.062 122.126 600 194.562 600 c 0
 289.837 600 300.604 332.584 244.562 152 c 0
 226.562 94 163.222 97.0596 142.562 130 c 0
 121.771 163.148 165.208 203.354 226.562 222 c 0
 430.562 284 714.562 600 588.562 600 c 0
 534.562 600 553.837 0 604.837 0 c 0
 644.562 0 662.562 32 670.562 56 c 9
EndSplineSet
EndChar

StartChar: ma
Encoding: 35 2350 35
Width: 752
VWidth: 0
Flags: W
AnchorPoint: "anusvara" 400 800 basechar 0
AnchorPoint: "eT" 589 600 basechar 0
LayerCount: 2
Fore
SplineSet
142.585 600 m 17
 195.657 510.141 256.585 0 172.585 0 c 0
 38.9277 0 169.585 186.141 456.657 186.141 c 0
 672.657 186.141 660.657 0 574.585 0 c 0
 438.657 0 535.585 525.141 588.657 600 c 13
EndSplineSet
EndChar

StartChar: ya
Encoding: 36 2351 36
Width: 703
VWidth: 0
Flags: W
AnchorPoint: "anusvara" 400 800 basechar 0
AnchorPoint: "eT" 583 600 basechar 0
LayerCount: 2
Fore
SplineSet
139.422 424.897 m 17
 193.421 338.897 338.445 350.13 361.422 426 c 0
 390.16 520.897 358.68 600 279.422 600 c 0
 141.421 600 107.609 367.269 123.683 201 c 24
 134.692 87.1035 221.421 0 337.422 0 c 0
 621.421 0 567.421 222.898 553.421 340.897 c 0
 541.158 444.26 553.42 570.897 583.421 600 c 13
EndSplineSet
EndChar

StartChar: ra
Encoding: 37 2352 37
Width: 689
VWidth: 0
Flags: W
AnchorPoint: "anusvara" 500 800 basechar 0
AnchorPoint: "eT" 507 600 basechar 0
LayerCount: 2
Fore
SplineSet
507 600 m 29
 525.72 420.99 600.813 278.941 555 141 c 0
 520.465 37.0166 444.813 0 312 0 c 0
 210.945 0 164.813 100.941 120 174 c 0
EndSplineSet
EndChar

StartChar: la
Encoding: 38 2354 38
Width: 685
VWidth: 0
Flags: W
AnchorPoint: "anusvara" 400 800 basechar 0
AnchorPoint: "eT" 537 600 basechar 0
LayerCount: 2
Fore
SplineSet
163.3 600 m 17
 124.798 557.812 102.212 486.27 137.802 429 c 24
 224.36 289.715 372.102 289.804 446.798 143.812 c 24
 476.888 85.002 450.798 0 357.3 0 c 0
 270.428 0 247.04 80.2686 272.798 137.812 c 24
 336.588 280.321 471.357 292.236 548.798 427.812 c 24
 582.186 486.265 556.798 545.812 536.798 600 c 9
EndSplineSet
EndChar

StartChar: va
Encoding: 39 2357 39
Width: 746
VWidth: 0
Flags: W
AnchorPoint: "anusvara" 400 800 basechar 0
AnchorPoint: "eT" 567 600 basechar 0
LayerCount: 2
Fore
SplineSet
174.936 600 m 17
 135.936 457.5 107.533 237 125.533 156 c 0
 149.75 47.0234 232.327 0 365.533 0 c 0
 515.533 0 551.533 24 626.533 93 c 9
567.186 600 m 17
 522.186 585 522.686 537 516.686 396 c 0
 511.418 272.201 505.705 166.335 498.686 19.5 c 25
EndSplineSet
EndChar

StartChar: za
Encoding: 40 2358 40
Width: 797
VWidth: 0
Flags: W
AnchorPoint: "anusvara" 400 800 basechar 0
AnchorPoint: "eT" 625 600 basechar 0
LayerCount: 2
Fore
SplineSet
625.216 600 m 17
 607.216 440.825 582.216 0 657.216 0 c 0
 695.216 0 707.216 34.8252 717.216 72.8252 c 9
194.423 600 m 17
 304.423 564 304.423 380 199.216 328 c 0
 154.964 306.128 91.2158 380 133.216 436 c 0
 192.368 514.869 389.086 504.467 384.216 406 c 0
 374.423 208 193.426 251.496 175.216 112 c 24
 165.521 37.7334 235.216 0 331.216 0 c 0
 423.601 0 457.216 88 498.216 168 c 9
EndSplineSet
EndChar

StartChar: Sa
Encoding: 41 2359 41
Width: 575
VWidth: 0
Flags: W
AnchorPoint: "anusvara" 350 800 basechar 0
AnchorPoint: "eT" 444 600 basechar 0
LayerCount: 2
Fore
SplineSet
159.091 558 m 25
 407.437 346.713 l 25
444.091 600 m 25
 445.396 366 399.438 0 447.437 0 c 0
 479.438 0 483.438 30.7129 495.437 62.7129 c 9
126.091 600 m 25
 132.075 497.318 100.346 431.004 141.437 336.713 c 24
 171.679 267.316 217.914 210.827 293.437 216 c 24
 370.669 221.29 409.438 300.713 433.437 356.713 c 9
EndSplineSet
EndChar

StartChar: sa
Encoding: 42 2360 42
Width: 817
VWidth: 0
Flags: W
AnchorPoint: "anusvara" 450 800 basechar 0
AnchorPoint: "eT" 491 600 basechar 0
LayerCount: 2
Fore
SplineSet
151.704 600 m 17
 220.704 440.356 94.7041 341.356 124.704 182.356 c 0
 143.08 84.9629 160.704 0 301.704 0 c 0
 473.69 0 532.704 104.356 586.704 366 c 0
 606.643 462.605 586.704 600 490.704 600 c 0
 412.704 600 372.779 476.487 409.704 431.356 c 0
 463.704 365.356 481.704 377.356 697.704 438 c 9
EndSplineSet
EndChar

StartChar: ha
Encoding: 43 2361 43
Width: 644
VWidth: 0
Flags: W
AnchorPoint: "anusvara" 350 800 basechar 0
AnchorPoint: "eT" 428.38 600 basechar 0
LayerCount: 2
Fore
SplineSet
212.212 600 m 0
 163.487 550 127.118 498.255 146.808 430 c 24
 161.887 377.728 204.251 355.999 276.251 378 c 1
 180.251 351.999 100.426 258.189 124.251 156 c 24
 149.608 47.2393 226.251 0 364.38 0 c 0
 484.901 0 513.249 68.5312 522.38 154.129 c 24
 541.229 330.839 400.38 390.129 428.38 600 c 9
EndSplineSet
EndChar

StartChar: La
Encoding: 44 2355 44
Width: 808
VWidth: 0
Flags: W
AnchorPoint: "anusvara" 420 800 basechar 0
AnchorPoint: "eT" 446 600 basechar 0
LayerCount: 2
Fore
SplineSet
363.383 323.999 m 17
 330.384 377.999 323.385 398.999 268.737 398.999 c 0
 58.5811 398.999 106.581 0 197.176 0 c 0
 516.845 0 288.384 399 612.383 399 c 0
 721.581 399 730.581 0 520.737 0 c 0
 361.738 0 409.43 170.997 406.581 282 c 0
 403.425 405 421.581 507 445.581 600 c 9
EndSplineSet
EndChar

StartChar: kSa
Encoding: 45 -1 45
Width: 779
VWidth: 0
Flags: W
AnchorPoint: "anusvara" 500 800 basechar 0
AnchorPoint: "eT" 620 600 basechar 0
LayerCount: 2
Fore
SplineSet
391.926 491.363 m 17
 595.926 170.363 645.852 600 621.852 600 c 0
 579.852 600 585.852 0 648.852 0 c 0
 673.197 0 687.852 0 699.852 36 c 9
286.926 431.363 m 17
 145.926 533.363 187.926 689.363 280.926 695.363 c 0
 412.788 703.871 442.926 560.363 391.926 491.363 c 0
 314.24 386.26 186.852 456 126.852 264 c 0
 99.1406 175.326 158.551 77.1758 249.852 60 c 24
 338.925 43.2441 388.282 126.46 429.852 207 c 24
 446.417 239.096 344.515 282.094 345.852 246 c 0
 348.852 165 390.852 84 504.852 0 c 9
EndSplineSet
LCarets2: 2 0 0 
Ligature2: "Akhand ligatures-1" ka virAma Sa
EndChar

StartChar: AT
Encoding: 47 2366 47
Width: 260
VWidth: 0
Flags: W
AnchorPoint: "eT" 88.709 600 basechar 0
AnchorPoint: "anusvara" 103.709 800 basechar 0
LayerCount: 2
Fore
SplineSet
88.9248 600 m 17
 70.9248 440.825 45.9248 0 120.925 0 c 0
 158.925 0 170.925 34.8252 180.925 72.8252 c 9
EndSplineSet
EndChar

StartChar: IT
Encoding: 49 2368 49
Width: 344
VWidth: 0
Flags: W
AnchorPoint: "anusvara" 200 800 basechar 0
LayerCount: 2
Fore
SplineSet
-198 600 m 17
 -171 681 -128.872 759 -42 759 c 0
 129 759 339 0 117 0 c 0
 -12 0 123 456 264 600 c 9
EndSplineSet
EndChar

StartChar: uT
Encoding: 50 2369 50
Width: 0
VWidth: 0
Flags: W
LayerCount: 2
Fore
SplineSet
-519 -114 m 17
 -453 -192 -414.742 -281.621 -306 -300 c 24
 -213.098 -315.702 -96 -276 -93 -186 c 0
 -91.5866 -143.597 -139.989 -81 -217.989 -81 c 0
 -260.79 -81 -273.989 -108.176 -285.989 -126.176 c 9
EndSplineSet
EndChar

StartChar: eT
Encoding: 54 2375 54
Width: 0
VWidth: 0
Flags: W
AnchorPoint: "anusvAra2" -10 800 basemark 0
AnchorPoint: "eT" -100 600 mark 0
LayerCount: 2
Fore
SplineSet
-450 900 m 17
 -404 814 -261 645 -100 600 c 9
EndSplineSet
EndChar

StartChar: aiT
Encoding: 55 2376 55
Width: 0
VWidth: 0
Flags: W
AnchorPoint: "anusvAra2" -10 800 basemark 0
AnchorPoint: "eT" -100 600 mark 0
LayerCount: 2
Fore
SplineSet
-450 900.8 m 17
 -464 830.6 -433.745 763.951 -368 747.8 c 0
 -270.304 723.8 -201.305 795.8 -204.305 837.8 c 0
 -206.224 864.667 -216.305 879.8 -255.305 879.8 c 0
 -358.774 879.8 -287 657.8 -100 600 c 9
EndSplineSet
EndChar

StartChar: anusvAra
Encoding: 59 2306 59
Width: 0
VWidth: 0
Flags: W
AnchorPoint: "anusvAra2" -100 800 mark 0
AnchorPoint: "anusvara" -100 800 mark 0
LayerCount: 2
Fore
SplineSet
-81 813.5 m 25
 -123 783.5 l 25
EndSplineSet
EndChar

StartChar: kA
Encoding: 61 -1 61
Width: 881
VWidth: 0
Flags: W
AnchorPoint: "anusvara" 600 800 basechar 0
AnchorPoint: "eT" 717 600 basechar 0
LayerCount: 2
Fore
SplineSet
331 600 m 17
 231.999 564 145.513 492.475 121.419 375 c 24
 105.029 295.09 235.757 291.075 251.212 210.979 c 24
 265.15 138.741 252.553 33.4893 187.315 33.4893 c 0
 147.212 33.4893 109.26 89.5254 130.315 126.489 c 0
 149.375 159.949 254.171 206 376 206 c 0
 532 206 463.349 15.6622 442 46 c 4
 252 316 726 196 753.315 111.489 c 4
 774.667 45.4285 760.292 0 693.315 0 c 4
 591.315 0 607.315 467.489 715.315 600 c 13
EndSplineSet
LCarets2: 1 0 
Ligature2: "AT ligatures-1" ka AT
EndChar

StartChar: khA
Encoding: 62 -1 62
Width: 960
VWidth: 0
Flags: W
AnchorPoint: "anusvara" 700 800 basechar 0
AnchorPoint: "eT" 820 601.927 basechar 0
LayerCount: 2
Fore
SplineSet
120 600 m 17
 181.806 648.704 201.611 661.408 265.806 660.704 c 0
 351.019 659.77 332.879 594.665 313.806 552.704 c 0
 283.806 486.704 121.806 417.704 172.806 345.704 c 0
 222.823 275.091 383.994 277.05 385.806 318.704 c 0
 388.806 387.704 208.806 318.704 223.806 189.704 c 0
 241.203 40.083 302.462 0 431.463 0 c 0
 502.39 0 490.639 174.575 542.463 222 c 0
 577.984 254.507 809.462 249 830.463 144 c 0
 841.185 90.3892 862 0 760 0 c 0
 651.973 0 716.756 363.192 722.463 402 c 0
 737.462 504 744.806 567.704 819.806 600 c 0
EndSplineSet
LCarets2: 1 0 
Ligature2: "AT ligatures-1" kha AT
EndChar

StartChar: cA
Encoding: 66 -1 66
Width: 803
VWidth: 0
Flags: W
AnchorPoint: "anusvara" 400 800 basechar 0
AnchorPoint: "eT" 491 600 basechar 0
LayerCount: 2
Fore
SplineSet
193.321 210 m 17
 317.321 110 286.037 0 178.038 0 c 0
 146.037 0 120.879 35.5713 120.038 53.6621 c 0
 116.037 139.662 426.771 79.5908 476.038 251.662 c 0
 495.032 318 408.038 397.662 284.038 405.662 c 1
 342.081 403.324 405.946 417.822 450.038 477.662 c 0
 478.038 515.662 416 600 492 600 c 4
 752 600 704 188 598 0 c 4
EndSplineSet
LCarets2: 1 0 
Ligature2: "AT ligatures-1" ca AT
EndChar

StartChar: jA
Encoding: 68 -1 68
Width: 823
VWidth: 0
Flags: W
AnchorPoint: "anusvara" 470.945 800 basechar 0
AnchorPoint: "eT" 659.945 600 basechar 0
LayerCount: 2
Fore
SplineSet
317.015 444 m 1
 291.241 398.925 235.927 367.418 183.277 386 c 0
 68.3711 426.555 129.241 600 213.53 600 c 0
 417.191 600 327.53 0 243.53 0 c 0
 181.191 0 240.53 186.141 527.603 186.141 c 0
 743.603 186.141 731.603 0 645.53 0 c 0
 509.603 0 606.53 525.141 659.603 600 c 9
EndSplineSet
LCarets2: 1 0 
Ligature2: "AT ligatures-1" ja AT
EndChar

StartChar: jhA
Encoding: 69 -1 69
Width: 1033
VWidth: 0
Flags: W
AnchorPoint: "anusvara" 750 800 basechar 0
AnchorPoint: "eT" 849 600 basechar 0
LayerCount: 2
Fore
SplineSet
442.116 303 m 17
 450.762 311.661 474.636 322.03 506.828 326.553 c 0
 680.828 351 701.987 131.469 662.828 144 c 0
 512.828 192 665.828 354 759.927 354 c 0
 826.771 354 990.229 133.585 871.737 102.865 c 0
 790.737 81.8652 799.737 444.865 849.927 600 c 9
340.927 600 m 17
 280.927 513.865 112.927 540.865 130.927 408.865 c 0
 151.476 258.175 375.024 451.367 442.116 303 c 0
 472.927 234.865 403.062 119.813 289.927 108.865 c 0
 196.927 99.8652 70.6602 133.306 139.927 174.865 c 0
 289.927 264.865 239.737 0 361.927 0 c 0
 422.327 0 464.737 21.8652 491.737 81.8652 c 9
EndSplineSet
LCarets2: 1 0 
Ligature2: "AT ligatures-1" jha AT
EndChar

StartChar: JA
Encoding: 70 -1 70
Width: 1008
VWidth: 0
Flags: W
AnchorPoint: "anusvara" 750 800 basechar 0
AnchorPoint: "eT" 851 600 basechar 0
LayerCount: 2
Fore
SplineSet
460 293.28 m 17
 475.844 292.852 503.902 290.474 538 283.862 c 0
 692 254 655.488 49.5381 584 60 c 0
 502 72 606 274 758 224.814 c 0
 828.357 202.047 881.054 161.894 887.252 119.28 c 0
 894.831 67.1729 865.252 0 824 0 c 0
 732.22 0 848.22 452 851 600 c 9
226 409.28 m 17
 270 463.281 414.956 471.341 447.748 391 c 24
 486.112 297.008 428.927 168.317 327.748 160 c 0
 246 153.281 161.253 212.562 120 277.28 c 9
EndSplineSet
LCarets2: 1 0 
Ligature2: "AT ligatures-1" Ja AT
EndChar

StartChar: TA
Encoding: 71 -1 71
Width: 839
VWidth: 0
Flags: W
AnchorPoint: "anusvara" 680 800 basechar 0
AnchorPoint: "eT" 710 600 basechar 0
LayerCount: 2
Fore
SplineSet
710.662 600 m 17
 670.663 548.996 665.248 535.148 650 476 c 0
 621.385 365 518 0 654 0 c 0
 696.173 0 728 192 622 192 c 0
 511.982 192 491.239 173.662 466 134 c 0
 410 46 330.583 -1.90735e-06 270.59 0 c 0
 134.76 0 36.5898 180.996 222.59 312.996 c 0
EndSplineSet
LCarets2: 1 0 
Ligature2: "AT ligatures-1" Ta AT
EndChar

StartChar: thA
Encoding: 77 -1 77
Width: 968
VWidth: 0
Flags: W
AnchorPoint: "anusvara" 811.709 800 basechar 0
AnchorPoint: "eT" 796.709 600 basechar 0
LayerCount: 2
Fore
SplineSet
580.925 600 m 17
 562.925 440.825 537.925 0 612.925 0 c 0
 650.925 0 662.925 34.8252 672.925 72.8252 c 9
796.925 600 m 17
 778.925 440.825 753.925 0 828.925 0 c 0
 866.925 0 878.925 34.8252 888.925 72.8252 c 9
263 384 m 17
 131 399 122 600 245 600 c 0
 341 600 355.644 524.815 335 465 c 24
 298.021 357.856 221 306 128 261 c 1
 197 216 257.19 145.825 356 150 c 24
 448.081 153.891 503 201 554 279 c 9
EndSplineSet
LCarets2: 1 0 
Ligature2: "AT ligatures-1" tha AT
EndChar

StartChar: dA
Encoding: 78 -1 78
Width: 719
VWidth: 0
Flags: W
AnchorPoint: "eT" 547.246 600 basechar 0
AnchorPoint: "anusvara" 562.246 800 basechar 0
LayerCount: 2
Fore
SplineSet
547.463 600 m 17
 529.463 440.825 504.463 0 579.463 0 c 0
 617.463 0 629.463 34.8252 639.463 72.8252 c 9
284.429 600 m 0
 172.429 533.927 83.7725 417.704 134.772 345.704 c 0
 184.789 275.091 345.96 277.05 347.772 318.704 c 0
 350.772 387.704 170.772 318.704 185.772 189.704 c 0
 203.169 40.083 315.463 0 417.463 0 c 1
EndSplineSet
LCarets2: 1 0 
Ligature2: "AT ligatures-1" da AT
EndChar

StartChar: dhA
Encoding: 79 -1 79
Width: 982
VWidth: 0
Flags: W
AnchorPoint: "eT" 810.247 600 basechar 0
AnchorPoint: "anusvara" 825.247 800 basechar 0
LayerCount: 2
Fore
SplineSet
594.462 600 m 17
 576.462 440.825 551.462 0 626.462 0 c 0
 664.462 0 676.462 34.8252 686.462 72.8252 c 9
810.462 600 m 17
 792.462 440.825 767.462 0 842.462 0 c 0
 880.462 0 892.462 34.8252 902.462 72.8252 c 9
120 488.129 m 17
 151.413 456.33 268.346 422.415 340 470.129 c 24
 385.412 500.369 358.771 600 288 600 c 0
 216 600 189.972 478.039 225.871 408 c 24
 259.093 343.184 335.871 344.128 407.871 366.129 c 1
 311.871 340.128 249.872 292 259.871 244 c 0
 282.514 135.307 341.872 140 415.871 140 c 0
 497.872 140 539.872 218 573.871 294.129 c 0
EndSplineSet
LCarets2: 1 0 
Ligature2: "AT ligatures-1" dha AT
EndChar

StartChar: nA
Encoding: 80 -1 80
Width: 772
VWidth: 0
Flags: W
AnchorPoint: "anusvara" 419.627 800 basechar 0
AnchorPoint: "eT" 608.627 600 basechar 0
LayerCount: 2
Fore
SplineSet
222.4 564 m 17
 227.802 509.562 185.188 488 149.959 504 c 0
 109.037 522.585 107.188 600 162.212 600 c 0
 365.873 600 276.212 0 192.212 0 c 0
 129.873 0 276.4 186.141 476.284 186.141 c 0
 692.284 186.141 680.284 0 594.212 0 c 0
 458.284 0 555.212 525.141 608.284 600 c 9
EndSplineSet
LCarets2: 1 0 
Ligature2: "AT ligatures-1" na AT
EndChar

StartChar: pA
Encoding: 81 -1 81
Width: 836
VWidth: 0
Flags: W
AnchorPoint: "eT" 664.247 600 basechar 0
AnchorPoint: "anusvara" 679.247 800 basechar 0
LayerCount: 2
Fore
SplineSet
664.463 600 m 17
 646.463 440.825 621.463 0 696.463 0 c 0
 734.463 0 746.463 34.8252 756.463 72.8252 c 9
444.091 600 m 25
 445.396 366 399.438 0 447.437 0 c 0
 479.438 0 483.438 30.7129 495.437 62.7129 c 9
126.091 600 m 25
 132.075 497.318 100.346 431.004 141.437 336.713 c 24
 171.679 267.316 217.914 210.827 293.437 216 c 24
 370.669 221.29 409.438 300.713 433.437 356.713 c 9
EndSplineSet
LCarets2: 1 0 
Ligature2: "AT ligatures-1" pa AT
EndChar

StartChar: phA
Encoding: 82 -1 82
Width: 1079
VWidth: 0
Flags: W
AnchorPoint: "anusvara" 700 800 basechar 0
AnchorPoint: "eT" 959 600 basechar 0
LayerCount: 2
Fore
SplineSet
129.724 600 m 17
 101.724 508.936 129.988 256.35 269.977 252.936 c 0
 433.977 248.936 429.977 600 411.977 600 c 0
 375.977 600 442.977 0 399.977 0 c 0
 372.977 0 375.977 183 474.724 183 c 0
 649.587 183 760.587 0 685.587 0 c 0
 574.587 0 595.587 204 799.587 150 c 0
 894.012 125.005 923.594 9.53674e-07 911.724 0 c 0
 859.724 0 860.173 495 959.173 600 c 9
EndSplineSet
LCarets2: 1 0 
Ligature2: "AT ligatures-1" pha AT
EndChar

StartChar: bA
Encoding: 83 -1 83
Width: 797
VWidth: 0
Flags: W
AnchorPoint: "anusvara" 450 800 basechar 0
AnchorPoint: "eT" 627 600 basechar 0
LayerCount: 2
Fore
SplineSet
253.117 600 m 17
 167.118 565.983 106.521 514.087 122.588 447 c 0
 139.117 377.983 199.117 331.983 321.117 389.983 c 1
 181.118 333.982 139.117 281.983 157.117 139.983 c 0
 172.84 15.9473 313.847 0 375.847 0 c 0
 438.595 0 370.512 166 472.424 166 c 4
 559.49 166 594.912 172.935 630 144 c 4
 689.044 95.3105 700.796 0 618 0 c 4
 582 0 571.731 272.201 577 396 c 4
 583 537 582.5 585 627.5 600 c 13
EndSplineSet
LCarets2: 1 0 
Ligature2: "AT ligatures-1" ba AT
EndChar

StartChar: bhA
Encoding: 84 -1 84
Width: 881
VWidth: 0
Flags: W
AnchorPoint: "anusvara" 600 800 basechar 0
AnchorPoint: "eT" 717 600 basechar 0
LayerCount: 2
Fore
SplineSet
390.263 528 m 17
 336.263 488 242.629 416.018 150.263 450 c 24
 93.0166 471.062 122.126 600 194.562 600 c 0
 289.837 600 261.239 402 251.213 210.979 c 0
 247.357 137.51 252.553 33.4893 187.315 33.4893 c 0
 147.212 33.4893 109.26 89.5254 130.315 126.489 c 0
 149.375 159.949 254.171 206 376 206 c 0
 532 206 463.349 15.6622 442 46 c 0
 252 316 726 196 753.315 111.489 c 0
 774.667 45.4285 760.292 0 693.315 0 c 0
 591.315 0 607.315 467.489 715.315 600 c 9
EndSplineSet
LCarets2: 1 0 
Ligature2: "AT ligatures-1" bha AT
EndChar

StartChar: mA
Encoding: 85 -1 85
Width: 753
VWidth: 0
Flags: W
AnchorPoint: "anusvara" 434.631 800 basechar 0
AnchorPoint: "eT" 623.631 600 basechar 0
LayerCount: 2
Fore
SplineSet
220 600 m 17
 249.66 584 302 582 312 488 c 0
 322.376 390.469 196 348 120 330 c 1
 206 348 338 318 349.661 234 c 0
 368.79 96.209 337.969 0 296 0 c 0
 162.343 0 344.877 186.141 491.288 186.141 c 0
 658 186.141 648 0 609.216 0 c 0
 473.288 0 570.216 525.141 623.288 600 c 9
EndSplineSet
LCarets2: 1 0 
Ligature2: "AT ligatures-1" ma AT
EndChar

StartChar: yA
Encoding: 86 -1 86
Width: 882
VWidth: 0
Flags: W
AnchorPoint: "anusvara" 465.189 800 basechar 0
AnchorPoint: "eT" 724.189 600 basechar 0
LayerCount: 2
Fore
SplineSet
177.167 600 m 0
 141.167 600 208.167 0 165.167 0 c 0
 69.3145 0 141.167 252 239.914 252 c 0
 414.776 252 525.776 0 450.776 0 c 0
 339.776 0 372.695 273.089 579.481 231 c 0
 805.481 185 801.481 0 676.913 0 c 0
 624.913 0 625.362 495 724.362 600 c 9
EndSplineSet
LCarets2: 1 0 
Ligature2: "AT ligatures-1" ya AT
EndChar

StartChar: rA
Encoding: 87 -1 87
Width: 823
VWidth: 0
Flags: W
AnchorPoint: "anusvara" 666.246 800 basechar 0
AnchorPoint: "eT" 651.246 600 basechar 0
LayerCount: 2
Fore
SplineSet
435.462 600 m 17
 417.462 440.825 392.462 0 467.462 0 c 0
 505.462 0 517.462 34.8252 527.462 72.8252 c 9
651.462 600 m 17
 633.462 440.825 608.462 0 683.462 0 c 0
 721.462 0 733.462 34.8252 743.462 72.8252 c 9
120 294 m 0
 288 285 357.537 342 408.537 420 c 9
EndSplineSet
LCarets2: 1 0 
Ligature2: "AT ligatures-1" ra AT
EndChar

StartChar: lA
Encoding: 88 -1 88
Width: 824
VWidth: 0
Flags: W
AnchorPoint: "anusvara" 472.027 800 basechar 0
AnchorPoint: "eT" 661.027 600 basechar 0
LayerCount: 2
Fore
SplineSet
158.273 600 m 17
 119.771 557.812 108.524 491.915 132.775 429 c 24
 181.741 301.963 299.766 275.556 334.11 143.812 c 24
 350.774 79.8877 338.11 0 244.612 0 c 0
 110.955 0 241.612 186.141 528.685 186.141 c 0
 744.684 186.141 732.684 0 646.612 0 c 0
 510.685 0 607.612 525.141 660.684 600 c 9
EndSplineSet
LCarets2: 1 0 
Ligature2: "AT ligatures-1" la AT
EndChar

StartChar: vA
Encoding: 89 -1 89
Width: 797
VWidth: 0
Flags: W
AnchorPoint: "eT" 627 600 basechar 0
AnchorPoint: "anusvara" 450 800 basechar 0
LayerCount: 2
Fore
SplineSet
627.5 600 m 17
 582.5 585 583 537 577 396 c 0
 571.731 272.201 582 0 618 0 c 0
 700.796 0 689.044 95.3105 630 144 c 0
 594.912 172.935 559.49 166 472.424 166 c 0
 370.512 166 404 0 365.533 0 c 0
 232.326 0 149.75 47.0234 125.532 156 c 0
 107.532 237 135.936 457.5 174.936 600 c 9
EndSplineSet
LCarets2: 1 0 
Ligature2: "AT ligatures-1" va AT
EndChar

StartChar: sA
Encoding: 92 -1 92
Width: 916
VWidth: 0
Flags: W
AnchorPoint: "eT" 655 600 basechar 0
AnchorPoint: "anusvara" 450 800 basechar 0
LayerCount: 2
Fore
SplineSet
372 392 m 25
 684 226 l 25
151.704 600 m 17
 220.704 440.356 94.7041 341.356 124.704 182.356 c 0
 143.08 84.9629 160.704 0 301.704 0 c 0
 473.69 0 482.704 104.356 536.704 366 c 0
 556.644 462.605 580 600 656 600 c 0
 874 600 800 188 694 0 c 0
EndSplineSet
LCarets2: 1 0 
Ligature2: "AT ligatures-1" sa AT
EndChar

StartChar: hA
Encoding: 93 -1 93
Width: 838
VWidth: 0
Flags: W
AnchorPoint: "anusvara" 445 800 basechar 0
AnchorPoint: "eT" 624.258 600 basechar 0
LayerCount: 2
Fore
SplineSet
208.09 600 m 0
 159.365 550 122.997 498.255 142.687 430 c 24
 157.765 377.728 200.129 355.999 272.129 378 c 1
 176.129 351.999 116.853 260.878 120.129 156 c 24
 122.884 67.8223 145.811 0 283.939 0 c 0
 403.939 0 439.939 56 431.939 150 c 1
 447.939 60 459.939 0 545.939 0 c 0
 661.939 0 685.939 64 705.939 126 c 0
 763.528 304.526 596.258 390.129 624.258 600 c 9
EndSplineSet
LCarets2: 1 0 
Ligature2: "AT ligatures-1" ha AT
EndChar

StartChar: Gi
Encoding: 101 -1 101
Width: 1124
Flags: W
AnchorPoint: "anusvara" 980 800 basechar 0
LayerCount: 2
Fore
SplineSet
470.5 600 m 17
 497.5 681 539.628 759 626.5 759 c 0
 911.5 759 1119 0 897 0 c 0
 768 0 903 456 1044 600 c 9
EndSplineSet
Refer: 15 2329 N 1 0 0 1 0 0 2
LCarets2: 1 0 
Ligature2: "IT ligatures-1" Ga IT
EndChar

StartChar: ji
Encoding: 104 -1 104
Width: 1007
Flags: W
AnchorPoint: "anusvara" 863 800 basechar 0
LayerCount: 2
Fore
SplineSet
527.5 600 m 17
 550.848 681 587.276 759 662.396 759 c 0
 810.263 759 991.854 0 799.887 0 c 0
 688.338 0 805.074 456 927 600 c 9
EndSplineSet
Refer: 18 2332 N 1 0 0 1 0 0 2
LCarets2: 1 0 
Ligature2: "IT ligatures-1" ja IT
EndChar

StartChar: jhi
Encoding: 105 -1 105
Width: 1177
Flags: W
AnchorPoint: "anusvara" 1033 800 basechar 0
LayerCount: 2
Fore
SplineSet
650.5 600 m 17
 676.594 681 717.309 759 801.267 759 c 0
 966.529 759 1169.48 0 954.932 0 c 0
 830.26 0 960.73 456 1097 600 c 9
EndSplineSet
Refer: 19 2333 N 1 0 0 1 0 0 2
LCarets2: 1 0 
Ligature2: "IT ligatures-1" jha IT
EndChar

StartChar: Ji
Encoding: 106 -1 106
Width: 1152
Flags: W
AnchorPoint: "anusvara" 1008 800 basechar 0
LayerCount: 2
Fore
SplineSet
647.5 600 m 17
 672.309 681 711.017 759 790.838 759 c 0
 947.958 759 1140.91 0 936.932 0 c 0
 818.402 0 942.445 456 1072 600 c 9
EndSplineSet
Refer: 20 2334 N 1 0 0 1 0 0 2
LCarets2: 1 0 
Ligature2: "IT ligatures-1" Ja IT
EndChar

StartChar: Ti
Encoding: 107 -1 107
Width: 983
Flags: W
AnchorPoint: "anusvara" 839 800 basechar 0
LayerCount: 2
Fore
SplineSet
509.5 600 m 17
 532.497 681 568.379 759 642.37 759 c 0
 788.017 759 966.88 0 777.796 0 c 0
 667.922 0 782.906 456 903 600 c 9
EndSplineSet
Refer: 21 2335 N 1 0 0 1 0 0 2
LCarets2: 1 0 
Ligature2: "IT ligatures-1" Ta IT
EndChar

StartChar: Di
Encoding: 109 -1 109
Width: 1037
Flags: W
AnchorPoint: "anusvara" 893 800 basechar 0
LayerCount: 2
Fore
SplineSet
473.5 600 m 17
 501.757 681 545.845 759 636.76 759 c 0
 815.718 759 1035.49 0 803.159 0 c 0
 668.156 0 809.438 456 957 600 c 9
EndSplineSet
Refer: 23 2337 N 1 0 0 1 0 0 2
LCarets2: 1 0 
Ligature2: "IT ligatures-1" Da IT
EndChar

StartChar: Dhi
Encoding: 110 -1 110
Width: 1134
Flags: W
AnchorPoint: "anusvara" 990 800 basechar 0
LayerCount: 2
Fore
SplineSet
479.5 600 m 17
 513.075 681 565.461 759 673.487 759 c 0
 886.127 759 1147.26 0 871.204 0 c 0
 710.792 0 878.666 456 1054 600 c 9
EndSplineSet
Refer: 24 2338 N 1 0 0 1 0 0 2
LCarets2: 1 0 
Ligature2: "IT ligatures-1" Dha IT
EndChar

StartChar: Ni
Encoding: 111 -1 111
Width: 1051
Flags: W
AnchorPoint: "anusvara" 907 800 basechar 0
LayerCount: 2
Fore
SplineSet
533.5 600 m 17
 559.068 681 598.962 759 681.228 759 c 0
 843.159 759 1042.02 0 831.796 0 c 0
 709.637 0 837.478 456 971 600 c 9
EndSplineSet
Refer: 25 2339 N 1 0 0 1 0 0 2
LCarets2: 1 0 
Ligature2: "IT ligatures-1" Na IT
EndChar

StartChar: di
Encoding: 114 -1 114
Width: 1066
Flags: W
AnchorPoint: "anusvara" 922 800 basechar 0
LayerCount: 2
Fore
SplineSet
563.5 600 m 17
 588.191 681 626.718 759 706.162 759 c 0
 862.542 759 1054.59 0 851.568 0 c 0
 733.598 0 857.056 456 986 600 c 9
EndSplineSet
Refer: 28 2342 N 1 0 0 1 0 0 2
LCarets2: 1 0 
Ligature2: "IT ligatures-1" da IT
EndChar

StartChar: ni
Encoding: 116 -1 116
Width: 929
Flags: W
AnchorPoint: "anusvara" 785 800 basechar 0
LayerCount: 2
Fore
SplineSet
455.5 600 m 17
 478.497 681 514.379 759 588.37 759 c 0
 734.017 759 912.88 0 723.796 0 c 0
 613.922 0 728.906 456 849 600 c 9
EndSplineSet
Refer: 30 2344 N 1 0 0 1 0 0 2
LCarets2: 1 0 
Ligature2: "IT ligatures-1" na IT
EndChar

StartChar: mi
Encoding: 121 -1 121
Width: 1096
Flags: W
AnchorPoint: "anusvara" 952 800 basechar 0
LayerCount: 2
Fore
SplineSet
581.5 600 m 17
 606.893 681 646.514 759 728.214 759 c 0
 889.036 759 1086.54 0 877.75 0 c 0
 756.429 0 883.393 456 1016 600 c 9
EndSplineSet
Refer: 35 2350 N 1 0 0 1 0 0 2
LCarets2: 1 0 
Ligature2: "IT ligatures-1" ma IT
EndChar

StartChar: yi
Encoding: 122 -1 122
Width: 1047
Flags: W
AnchorPoint: "anusvara" 903 800 basechar 0
LayerCount: 2
Fore
SplineSet
569.5 600 m 17
 592.73 681 628.977 759 703.721 759 c 0
 850.848 759 1031.53 0 840.522 0 c 0
 729.532 0 845.686 456 967 600 c 9
EndSplineSet
Refer: 36 2351 N 1 0 0 1 0 0 2
LCarets2: 1 0 
Ligature2: "IT ligatures-1" ya IT
EndChar

StartChar: li
Encoding: 124 -1 124
Width: 637
VWidth: 0
Flags: W
AnchorPoint: "anusvara" 369.617 800 basechar 0
LayerCount: 2
Fore
SplineSet
398.623 600 m 17
 322 574 221.908 477.945 282.939 422 c 0
 330.94 378 382.525 449.292 446.939 412 c 0
 522.94 368 470.94 266 354.939 244 c 1
 456.94 260 506.114 202.969 516.415 143.812 c 8
 534.808 38.1855 375.618 0 282.12 0 c 0
 195.249 0 152 80 120 224 c 0
EndSplineSet
LCarets2: 1 0 
Ligature2: "IT ligatures-1" la IT
EndChar

StartChar: zi
Encoding: 126 -1 126
Width: 1141
Flags: W
AnchorPoint: "anusvara" 997 800 basechar 0
LayerCount: 2
Fore
SplineSet
623.5 600 m 17
 649.068 681 688.962 759 771.228 759 c 0
 933.159 759 1132.02 0 921.796 0 c 0
 799.637 0 927.478 456 1061 600 c 9
EndSplineSet
Refer: 40 2358 N 1 0 0 1 0 0 2
LCarets2: 1 0 
Ligature2: "IT ligatures-1" za IT
EndChar

StartChar: Si
Encoding: 127 -1 127
Width: 919
Flags: W
AnchorPoint: "anusvara" 775 800 basechar 0
LayerCount: 2
Fore
SplineSet
440.5 600 m 17
 463.789 681 500.127 759 575.059 759 c 0
 722.556 759 903.691 0 712.204 0 c 0
 600.936 0 717.38 456 839 600 c 9
EndSplineSet
Refer: 41 2359 N 1 0 0 1 0 0 2
LCarets2: 1 0 
Ligature2: "IT ligatures-1" Sa IT
EndChar

StartChar: si
Encoding: 128 -1 128
Width: 1161
Flags: W
AnchorPoint: "anusvara" 1017 800 basechar 0
LayerCount: 2
Fore
SplineSet
566.5 600 m 17
 596.568 681 643.483 759 740.228 759 c 0
 930.659 759 1111.73 0 864.5 0 c 4
 651.704 0 923.978 456 1081 600 c 9
EndSplineSet
Refer: 42 2360 N 1 0 0 1 0 0 2
LCarets2: 1 0 
Ligature2: "IT ligatures-1" sa IT
EndChar

StartChar: hi
Encoding: 129 -1 129
Width: 988
Flags: W
AnchorPoint: "anusvara" 844 800 basechar 0
LayerCount: 2
Fore
SplineSet
428.5 600 m 17
 456.522 681 500.246 759 590.409 759 c 0
 767.887 759 985.841 0 755.432 0 c 0
 621.546 0 761.659 456 908 600 c 9
EndSplineSet
Refer: 43 2361 N 1 0 0 1 0 0 2
LCarets2: 1 0 
Ligature2: "IT ligatures-1" ha IT
EndChar

StartChar: Li
Encoding: 130 -1 130
Width: 1152
Flags: W
AnchorPoint: "anusvara" 1008 800 basechar 0
LayerCount: 2
Fore
SplineSet
449.5 600 m 17
 476.5 681 518.628 759 605.5 759 c 0
 944.5 759 1147 0 925 0 c 0
 743.5 0 931 456 1072 600 c 9
EndSplineSet
Refer: 44 2355 N 1 0 0 1 0 0 2
LCarets2: 1 0 
Ligature2: "IT ligatures-1" La IT
EndChar

StartChar: kSi
Encoding: 131 -1 131
Width: 1123
VWidth: 0
Flags: W
AnchorPoint: "anusvara" 979 800 basechar 0
LayerCount: 2
Fore
SplineSet
620.5 600 m 17
 645.191 681 683.718 759 763.162 759 c 0
 919.542 759 1111.59 0 908.568 0 c 0
 790.598 0 914.056 456 1043 600 c 9
EndSplineSet
Refer: 45 -1 N 1 0 0 1 0 0 2
LCarets2: 1 0 
Ligature2: "IT ligatures-1" kSa IT
EndChar

StartChar: ku
Encoding: 133 -1 133
Width: 1179
VWidth: 0
Flags: W
AnchorPoint: "anusvara" 840 800 basechar 0
LayerCount: 2
Fore
SplineSet
1016.07 600 m 17
 963 525.141 866.072 0 1002 0 c 0
 1088.07 0 1100.07 186.141 884.072 186.141 c 0
 597 186.141 524.343 0 658 0 c 0
 714 0 732 56 744 176 c 0
 758.223 318.231 727 740 499 740 c 0
 216 740 120 514.338 120 310.338 c 0
 120 151 168 0 288 0 c 0
 423 0 468 106 475.038 190 c 0
 480.8 258.763 423 335 299 343 c 1
 357.043 340.662 410.558 352.406 449.038 416 c 0
 492 487 441 577 359 600 c 9
EndSplineSet
LCarets2: 1 0 
Ligature2: "uT ligatures-1" ka uT
Ligature2: "uT ligatures-1" ka UT
EndChar

StartChar: khu
Encoding: 134 -1 134
Width: 1064
VWidth: 0
Flags: W
AnchorPoint: "anusvara" 880 800 basechar 0
LayerCount: 2
Fore
SplineSet
359 600 m 17
 441 577 492 487 449.038 416 c 0
 410.558 352.406 357.043 340.662 299 343 c 1
 423 335 480.8 258.763 475.038 190 c 0
 468 106 423 0 288 0 c 0
 168 0 120 151 120 310.338 c 0
 120 514.338 216 740 499 740 c 0
 827 740 858.223 318.231 844 176 c 0
 832 56 814 0 758 0 c 0
 656 0 661 496 944 600 c 9
EndSplineSet
Refer: 59 2306 N 1 0 0 1 687 -381 2
LCarets2: 1 0 
Ligature2: "uT ligatures-1" kha uT
Ligature2: "uT ligatures-1" kha UT
EndChar

StartChar: gu
Encoding: 135 -1 135
Width: 657
Flags: W
AnchorPoint: "anusvara" 350 800 basechar 0
LayerCount: 2
Fore
SplineSet
475.486 600 m 17
 469.486 351.704 448.486 0 491.681 0 c 0
197.681 600 m 17
 247.486 414.704 265.486 327.704 253.486 243.704 c 0
 246.59 195.43 196.522 160.44 149.681 174 c 24
 111.017 185.192 112.862 246.516 139.486 276.704 c 24
 169.147 310.337 229.486 324.704 253.486 291.704 c 0
384 0 m 17
 498 -9 565.413 -62.5967 564 -105 c 0
 561 -195 443.902 -234.702 351 -219 c 24
 242.258 -200.621 204 -111 138 -33 c 9
EndSplineSet
LCarets2: 1 0 
Ligature2: "uT ligatures-1" ga uT
Ligature2: "uT ligatures-1" ga UT
EndChar

StartChar: ghu
Encoding: 136 -1 136
Width: 654
VWidth: 0
Flags: W
AnchorPoint: "anusvara" 350 800 basechar 0
LayerCount: 2
Fore
SplineSet
472 600 m 17
 468.701 343.547 450.701 0 502 0 c 0
208.298 600 m 17
 148 571.547 120 535.547 120 483.547 c 0
 120.001 407.892 228 407.547 304.298 423 c 1
 228 407.547 136.517 347.769 142 257.547 c 24
 146.399 185.161 240.636 180.153 318 197.547 c 0
 382.701 212.094 422.701 263.547 466 321 c 9
381 0 m 17
 495 -9 562.413 -62.5967 561 -105 c 0
 558 -195 440.902 -234.702 348 -219 c 24
 239.258 -200.621 201 -111 135 -33 c 9
EndSplineSet
LCarets2: 1 0 
Ligature2: "uT ligatures-1" gha uT
Ligature2: "uT ligatures-1" gha UT
EndChar

StartChar: ju
Encoding: 140 -1 140
Width: 893
VWidth: 0
Flags: W
AnchorPoint: "anusvara" 600 800 basechar 0
LayerCount: 2
Fore
SplineSet
748 600 m 17
 700 470 600.072 66 736 66 c 0
 822.072 66 768 258 480 258 c 1
318 600 m 0
 453.574 600 493 548.312 493 471.749 c 0
 493 389.53 324.999 317.312 237 317.312 c 1
 402 332.312 486 278.29 486 164.312 c 0
 486 74.3125 447 0 327 0 c 0
 233.614 0 153 125.312 120 191.312 c 9
EndSplineSet
LCarets2: 1 0 
Ligature2: "uT ligatures-1" ja uT
Ligature2: "uT ligatures-1" ja UT
EndChar

StartChar: Nu
Encoding: 147 -1 147
Width: 707
VWidth: 0
Flags: W
AnchorPoint: "anusvara" 500 800 basechar 0
LayerCount: 2
Fore
SplineSet
535.931 600 m 17
 517.931 440.825 492.931 0 567.931 0 c 0
132.712 600 m 17
 159.657 476 31.6572 190 253.539 190 c 0
 308.755 190 387.154 278.08 391.539 338 c 0
 397.539 420 293.31 428.167 293.539 408 c 0
 295.539 232 383.539 482 380.713 600 c 9
434 0 m 17
 548 -9 615.413 -62.5967 614 -105 c 0
 611 -195 493.902 -234.702 401 -219 c 24
 292.258 -200.621 254 -111 188 -33 c 9
EndSplineSet
LCarets2: 1 0 
Ligature2: "uT ligatures-1" Na uT
Ligature2: "uT ligatures-1" Na UT
EndChar

StartChar: tu
Encoding: 148 -1 148
Width: 924
VWidth: 0
Flags: W
AnchorPoint: "anusvara" 780 800 basechar 0
LayerCount: 2
Fore
SplineSet
359 600 m 17
 441 577 492 487 449.038 416 c 0
 410.558 352.406 357.043 340.662 299 343 c 1
 423 335 480.8 258.763 475.038 190 c 0
 468 106 423 0 288 0 c 0
 168 0 120 151 120 310.338 c 0
 120 514.338 216 740 499 740 c 0
 727 740 758.223 318.231 744 176 c 0
 732 56 714 0 658 0 c 0
 556 0 561 496 844 600 c 9
EndSplineSet
LCarets2: 1 0 
Ligature2: "uT ligatures-1" ta uT
Ligature2: "uT ligatures-1" ta UT
EndChar

StartChar: thu
Encoding: 149 -1 149
Width: 752
Flags: W
AnchorPoint: "anusvara" 415 800 basechar 0
LayerCount: 2
Fore
SplineSet
499.511 0 m 17
 613.511 -9 680.924 -62.5967 679.511 -105 c 0
 676.511 -195 559.413 -234.702 466.511 -219 c 24
 357.769 -200.621 319.511 -111 253.511 -33 c 9
580.925 600 m 17
 562.925 440.825 537.925 0 612.925 0 c 0
263 384 m 17
 131 399 122 600 245 600 c 0
 341 600 355.644 524.815 335 465 c 24
 298.021 357.856 221 306 128 261 c 1
 197 216 257.19 145.825 356 150 c 24
 448.081 153.891 503 201 554 279 c 9
EndSplineSet
LCarets2: 1 0 
Ligature2: "uT ligatures-1" tha uT
Ligature2: "uT ligatures-1" tha UT
EndChar

StartChar: du
Encoding: 150 -1 150
Width: 1023
VWidth: 0
Flags: W
AnchorPoint: "anusvara" 790 800 basechar 0
LayerCount: 2
Fore
SplineSet
417.218 600 m 17
 312.595 572 253.563 423.944 314.595 368 c 0
 362.595 324 394.181 395.293 458.595 358 c 0
 534.595 314 489.535 266 373.534 244 c 1
 475.535 260 524.709 202.969 535.01 143.812 c 8
 549.423 61.0352 468.093 0 374.595 0 c 0
 287.724 0 164.728 78.8203 138.595 224 c 0
 66.5947 624 208.595 760 479.535 760 c 0
 711 760 822 482 822 215 c 0
 822 85.1348 795.297 0 717 0 c 0
 630.297 0 615 419 903 600 c 9
EndSplineSet
LCarets2: 1 0 
Ligature2: "uT ligatures-1" da uT
Ligature2: "uT ligatures-1" da UT
EndChar

StartChar: nu
Encoding: 152 -1 152
Width: 893
VWidth: 0
Flags: W
AnchorPoint: "anusvara" 600 800 basechar 0
LayerCount: 2
Fore
SplineSet
748 600 m 17
 700 470 600.072 66 736 66 c 0
 822.072 66 768 258 480 258 c 1
416.64 555 m 5
 299.64 435 223.747 600 318 600 c 0
 453.574 600 493 548.312 493 471.749 c 0
 493 389.53 324.999 317.312 237 317.312 c 1
 402 332.312 486 278.29 486 164.312 c 0
 486 74.3125 447 0 327 0 c 0
 233.614 0 153 125.312 120 191.312 c 9
EndSplineSet
LCarets2: 1 0 
Ligature2: "uT ligatures-1" na uT
Ligature2: "uT ligatures-1" na UT
EndChar

StartChar: pu
Encoding: 153 -1 153
Width: 575
Flags: W
AnchorPoint: "anusvara" 300 800 basechar 0
LayerCount: 2
Fore
SplineSet
343.511 0 m 17
 457.511 -9 524.924 -62.5967 523.511 -105 c 0
 520.511 -195 403.413 -234.702 310.511 -219 c 24
 201.769 -200.621 163.511 -111 97.5107 -33 c 9
444.091 600 m 25
 445.396 366 399.438 0 447.437 0 c 0
126.091 600 m 25
 132.075 497.318 100.346 431.004 141.437 336.713 c 24
 171.679 267.316 217.914 210.827 293.437 216 c 24
 370.669 221.29 409.438 300.713 433.437 356.713 c 9
EndSplineSet
LCarets2: 1 0 
Ligature2: "uT ligatures-1" pa uT
Ligature2: "uT ligatures-1" pa UT
EndChar

StartChar: bhu
Encoding: 156 -1 156
Width: 750
VWidth: 0
Flags: W
AnchorPoint: "anusvara" 420 800 basechar 0
LayerCount: 2
Fore
SplineSet
390.263 528 m 17
 336.263 488 242.629 416.018 150.263 450 c 24
 93.0166 471.062 122.126 600 194.562 600 c 0
 289.837 600 300.604 332.584 244.562 152 c 0
 226.562 94 163.222 97.0596 142.562 130 c 0
 121.771 163.148 165.208 203.354 226.562 222 c 0
 430.562 284 714.562 600 588.562 600 c 0
 534.562 600 553.837 0 604.837 0 c 0
477 0 m 17
 591 -9 658.413 -62.5967 657 -105 c 0
 654 -195 536.902 -234.702 444 -219 c 24
 335.258 -200.621 297 -111 231 -33 c 9
EndSplineSet
LCarets2: 1 0 
Ligature2: "uT ligatures-1" bha uT
Ligature2: "uT ligatures-1" bha UT
EndChar

StartChar: mu
Encoding: 157 -1 157
Width: 750
VWidth: 0
Flags: W
AnchorPoint: "anusvara" 420 800 basechar 0
LayerCount: 2
Fore
SplineSet
205.511 600 m 5
 244.511 532.412 300.604 332.584 244.562 152 c 0
 226.562 94 163.222 97.0596 142.562 130 c 0
 121.771 163.148 165.208 203.354 226.562 222 c 0
 430.562 284 714.562 600 588.562 600 c 0
 534.562 600 553.837 0 604.837 0 c 0
477 0 m 17
 591 -9 658.413 -62.5967 657 -105 c 0
 654 -195 536.902 -234.702 444 -219 c 24
 335.258 -200.621 297 -111 231 -33 c 9
EndSplineSet
LCarets2: 1 0 
Ligature2: "uT ligatures-1" ma uT
Ligature2: "uT ligatures-1" ma UT
EndChar

StartChar: yu
Encoding: 158 -1 158
Width: 752
Flags: W
AnchorPoint: "anusvara" 415 800 basechar 0
LayerCount: 2
Fore
SplineSet
499.511 0 m 17
 613.511 -9 680.924 -62.5967 679.511 -105 c 0
 676.511 -195 559.413 -234.702 466.511 -219 c 24
 357.769 -200.621 319.511 -111 253.511 -33 c 9
580.925 600 m 17
 562.925 440.825 537.925 0 612.925 0 c 0
190.511 600 m 1
 295.511 570 290.143 512.507 277.511 444 c 24
 260.798 353.367 221 306 128 261 c 1
 197 216 257.19 145.825 356 150 c 24
 448.081 153.891 503 201 554 279 c 9
EndSplineSet
LCarets2: 1 0 
Ligature2: "uT ligatures-1" ya uT
Ligature2: "uT ligatures-1" ya UT
EndChar

StartChar: ru
Encoding: 159 -1 159
Width: 757
VWidth: 0
Flags: W
AnchorPoint: "anusvara" 444.441 800 basechar 0
LayerCount: 2
Fore
SplineSet
612.174 600 m 17
 564.174 470 464.246 66 600.174 66 c 0
 686.246 66 632.174 258 344.174 258 c 0
270.955 320 m 17
 176.955 292 120.456 274 120.456 203.312 c 0
 120.456 138 176.727 58 334.727 0 c 9
252.457 600 m 17
 291.457 548.312 324.174 442 324.174 342 c 0
 324.174 251.104 292.955 158 190.955 250 c 0
EndSplineSet
LCarets2: 1 0 
Ligature2: "uT ligatures-1" ra uT
Ligature2: "uT ligatures-1" ra UT
EndChar

StartChar: zu
Encoding: 162 -1 162
Width: 797
VWidth: 0
Flags: W
AnchorPoint: "anusvara" 400 800 basechar 0
LayerCount: 2
Fore
SplineSet
625.216 600 m 17
 607.216 440.825 582.216 0 657.216 0 c 0
194.423 600 m 17
 304.423 564 304.423 380 199.216 328 c 0
 154.964 306.128 91.2158 380 133.216 436 c 0
 192.368 514.869 389.086 504.467 384.216 406 c 0
 374.423 208 193.426 251.496 175.216 112 c 24
 165.521 37.7334 235.216 0 331.216 0 c 0
 423.601 0 457.216 88 498.216 168 c 9
524 0 m 17
 638 -9 705.413 -62.5967 704 -105 c 0
 701 -195 585.215 -218.037 491 -219 c 24
 419.125 -219.735 370.355 -147.688 343.355 -108.688 c 9
EndSplineSet
LCarets2: 1 0 
Ligature2: "uT ligatures-1" za uT
Ligature2: "uT ligatures-1" za UT
EndChar

StartChar: Su
Encoding: 163 -1 163
Width: 575
VWidth: 0
Flags: W
AnchorPoint: "anusvara" 350 800 basechar 0
LayerCount: 2
Fore
SplineSet
159.091 558 m 25
 407.438 346.713 l 25
444.091 600 m 25
 445.396 366 399.438 0 447.438 0 c 0
126.091 600 m 25
 132.075 497.318 100.346 431.004 141.437 336.713 c 24
 171.679 267.316 217.914 210.827 293.438 216 c 24
 370.669 221.29 409.438 300.713 433.438 356.713 c 9
302 0 m 17
 416 -9 483.413 -62.5967 482 -105 c 0
 479 -195 361.902 -234.702 269 -219 c 24
 160.258 -200.621 122 -111 56 -33 c 9
EndSplineSet
LCarets2: 1 0 
Ligature2: "uT ligatures-1" Sa uT
Ligature2: "uT ligatures-1" Sa UT
EndChar

StartChar: hu
Encoding: 165 -1 165
Width: 924
VWidth: 0
Flags: W
AnchorPoint: "anusvara" 780 800 basechar 0
LayerCount: 2
Fore
SplineSet
146 900 m 17
 371 900 512 600 449.038 416 c 0
 424.973 345.674 357.043 340.662 299 343 c 1
 423 335 480.8 258.763 475.038 190 c 0
 468 106 423 0 288 0 c 0
 168 0 120 151 120 310.338 c 0
 120 514.338 216 740 499 740 c 0
 727 740 758.223 318.231 744 176 c 0
 732 56 714 0 658 0 c 0
 556 0 561 496 844 600 c 9
EndSplineSet
LCarets2: 1 0 
Ligature2: "uT ligatures-1" ha uT
Ligature2: "uT ligatures-1" ha UT
EndChar

StartChar: kSu
Encoding: 167 -1 167
Width: 779
VWidth: 0
Flags: W
AnchorPoint: "anusvara" 500 800 basechar 0
LayerCount: 2
Fore
SplineSet
391.926 491.363 m 17
 595.926 170.363 645.852 600 621.852 600 c 0
 579.852 600 585.852 0 648.852 0 c 0
286.926 431.363 m 17
 145.926 533.363 187.926 689.363 280.926 695.363 c 0
 412.788 703.871 442.926 560.363 391.926 491.363 c 0
 314.24 386.26 186.852 456 126.852 264 c 0
 99.1406 175.326 158.551 77.1758 249.852 60 c 24
 338.925 43.2441 388.282 126.46 429.852 207 c 24
 446.417 239.096 344.515 282.094 345.852 246 c 0
 348.852 165 390.852 84 504.852 0 c 9
598.926 0 m 17
 697.926 0 726.339 -62.5967 724.926 -105 c 0
 721.926 -195 604.828 -234.702 511.926 -219 c 24
 403.184 -200.621 364.926 -111 298.926 -33 c 9
EndSplineSet
LCarets2: 1 0 
Ligature2: "uT ligatures-1" kSa uT
Ligature2: "uT ligatures-1" kSa UT
EndChar

StartChar: uT.full
Encoding: 169 -1 169
Width: 582
VWidth: 0
Flags: W
LayerCount: 2
Fore
SplineSet
60 600 m 17
 106 590 178.038 515.662 150.038 477.662 c 0
 105.946 417.822 72.043 431.662 14 434 c 1
 138 426 194.256 318.218 176.038 251.662 c 0
 140 120 -80 170.675 -80 372 c 0
 -80 576 19.6602 740 200 740 c 0
 428 740 416.223 318.231 402 176 c 0
 390 56 372 0 316 0 c 0
 214 0 298 520 502 600 c 9
EndSplineSet
EndChar
